<?xml version="1.0" encoding="UTF-8"?>
<svg id="Layer_2" data-name="Layer 2" xmlns="http://www.w3.org/2000/svg" viewBox="0 0 28.22 26.71">
  <defs>
    <style>
      .cls-1 {
        fill: #ccc;
      }

      .cls-1, .cls-2, .cls-3 {
        stroke-width: 0px;
      }

      .cls-2 {
        fill: #a7a6a6;
      }

      .cls-3 {
        fill: #fff;
      }
    </style>
  </defs>
  <g id="Layer_1-2" data-name="Layer 1">
    <g>
      <path class="cls-2" d="M12.13,24.12L0,19.32V3.88L12.16,0l12.16,3.88v16.23l-12.19,4.01ZM1.67,18.19l10.52,4.16,10.47-3.44V5.09L12.16,1.75,1.67,5.09v13.09Z"/>
      <polygon class="cls-2" points="12.7 8.67 .61 5.29 1.06 3.68 12.68 6.93 23.24 3.69 23.73 5.28 12.7 8.67"/>
      <path class="cls-2" d="M6.76,10.22c-.46,0-.83-.37-.83-.83v-3.24c0-.35.22-.67.55-.78l10.04-3.61c.43-.16.91.07,1.07.5.16.43-.07.91-.5,1.07l-9.49,3.42v2.65c0,.46-.37.83-.83.83Z"/>
      <g>
        <path class="cls-3" d="M24.33,14.7c-1.36-.85-2.38-1.65-2.38-1.65,0,0-1.02.8-2.38,1.65-1.1.68-3.06,1.29-3.06,1.29,0,0,.07,6.15,1.43,7.69,1.36,1.54,4.01,2.2,4.01,2.2,0,0,2.65-.66,4.01-2.2,1.36-1.54,1.43-7.69,1.43-7.69,0,0-1.96-.61-3.06-1.29Z"/>
        <path class="cls-2" d="M21.95,26.71c-.07,0-.13,0-.2-.02-.12-.03-2.92-.74-4.44-2.46-1.49-1.69-1.62-7.15-1.64-8.23,0-.37.24-.7.59-.81.02,0,1.88-.58,2.87-1.2,1.3-.81,2.29-1.59,2.3-1.6.3-.24.73-.24,1.03,0,0,0,1,.79,2.31,1.6.99.62,2.85,1.19,2.87,1.2.35.11.59.44.59.81-.01,1.08-.15,6.54-1.64,8.23-1.51,1.71-4.32,2.43-4.44,2.46-.07.02-.13.02-.2.02ZM17.36,16.59c.08,2.41.47,5.71,1.21,6.54.97,1.1,2.78,1.71,3.39,1.88.6-.18,2.42-.79,3.39-1.88.73-.83,1.13-4.13,1.21-6.54-.7-.24-1.86-.69-2.65-1.18h0c-.81-.5-1.5-.99-1.94-1.31-.44.32-1.13.81-1.94,1.31-.79.49-1.95.93-2.65,1.18Z"/>
      </g>
      <path class="cls-1" d="M21.68,22.49c-.34,0-.66-.14-.89-.38l-1.52-1.55c-.48-.49-.47-1.28.02-1.77.49-.48,1.28-.47,1.77.02l.58.59,1.49-1.68c.46-.52,1.25-.57,1.76-.11.52.46.57,1.25.11,1.76l-2.38,2.69c-.23.26-.56.41-.9.42-.01,0-.02,0-.03,0Z"/>
    </g>
  </g>
</svg>