<?xml version="1.0" encoding="UTF-8"?>
<svg id="Layer_2" data-name="Layer 2" xmlns="http://www.w3.org/2000/svg" viewBox="0 0 20.26 26.67">
  <defs>
    <style>
      .cls-1 {
        fill: #ccc;
      }

      .cls-1, .cls-2, .cls-3 {
        stroke-width: 0px;
      }

      .cls-2 {
        fill: #a7a6a6;
      }

      .cls-3 {
        fill: #fff;
      }
    </style>
  </defs>
  <g id="Layer_1-2" data-name="Layer 1">
    <g>
      <path class="cls-1" d="M9.28,17.91c-.34,0-.66-.14-.89-.38l-2.99-3.05c-.48-.49-.47-1.29.02-1.77.49-.48,1.29-.47,1.77.02l2.05,2.09,3.79-4.29c.46-.52,1.25-.57,1.76-.11.52.46.57,1.25.11,1.76l-4.68,5.3c-.23.26-.56.41-.9.42-.01,0-.02,0-.03,0Z"/>
      <path class="cls-2" d="M15.72,26.67H4.54c-2.5,0-4.54-2.04-4.54-4.54V5.88C0,3.38,2.04,1.35,4.54,1.35h11.19c2.5,0,4.54,2.03,4.54,4.54v16.25c0,2.5-2.03,4.54-4.54,4.54ZM4.54,3.02c-1.58,0-2.87,1.29-2.87,2.87v16.25c0,1.58,1.29,2.87,2.87,2.87h11.19c1.58,0,2.87-1.29,2.87-2.87V5.88c0-1.58-1.29-2.87-2.87-2.87H4.54Z"/>
      <g>
        <rect class="cls-3" x="4.71" y=".83" width="10.84" height="3.1"/>
        <path class="cls-2" d="M16.38,4.77H3.88V0h12.5v4.77ZM5.54,3.1h9.17v-1.44H5.54v1.44Z"/>
      </g>
    </g>
  </g>
</svg>