<?xml version="1.0" encoding="UTF-8"?>
<svg id="Layer_2" data-name="Layer 2" xmlns="http://www.w3.org/2000/svg" viewBox="0 0 16.9 20">
  <defs>
    <style>
      .cls-1 {
        fill: #454545;
        stroke-width: 0px;
      }
    </style>
  </defs>
  <g id="Layer_1-2" data-name="Layer 1">
    <path class="cls-1" d="M14.42,14.76c-1.73-1.35-2.03-1.4-2.42-1.1s-1.31,1.31-1.31,1.31c0,0-1.05-.53-2.14-1.61-.83-.82-1.46-1.58-1.79-2.01-.33-.44-.89-1.24-1.45-2.27-.74-1.34-.97-2.49-.97-2.49,0,0,1.22-.61,1.61-.9.39-.3.43-.6-.41-2.62C4.71,1.04,4.09-.05,3.71,0c-.45.06-.94.2-1.64.63-.97.59-3.19,1.99-1.38,6.4,1.39,3.38,2.9,5.46,3.54,6.25.59.83,2.19,2.85,5.07,5.09,3.76,2.93,5.7,1.17,6.53.39.6-.56.87-1,1.05-1.42.15-.35-.73-1.24-2.46-2.59Z"/>
  </g>
</svg>