<?xml version="1.0" encoding="UTF-8"?>
<svg id="Layer_2" data-name="Layer 2" xmlns="http://www.w3.org/2000/svg" viewBox="0 0 47 47">
  <defs>
    <style>
      .cls-1 {
        fill: #a7a6a6;
        stroke-width: 0px;
      }
    </style>
  </defs>
  <g id="Layer_1-2" data-name="Layer 1">
    <g>
      <path class="cls-1" d="M5.48,19.44s0,.01-.01.02c0,0,0,.02,0,.03l.02-.04Z"/>
      <path class="cls-1" d="M11.04,12.49s-.01,0-.02.01c0,0-.01.01-.02.02l.04-.03Z"/>
      <path class="cls-1" d="M41.54,19.49s0-.02,0-.03c0,0,0-.01-.01-.02l.02.04Z"/>
      <path class="cls-1" d="M3.49,28.12s0,.01,0,.02c0,0,0,.02,0,.03v-.05Z"/>
      <path class="cls-1" d="M43.51,28.17s0-.02,0-.03c0,0,0-.01,0-.02v.05Z"/>
      <path class="cls-1" d="M36,12.52s-.01-.01-.02-.02c0,0-.01,0-.02-.01l.04.03Z"/>
      <path class="cls-1" d="M9.01,18.65l-.45,1.67-4.26-1.14.17-.64,3.69.99.28-1.04.57.15Z"/>
      <path class="cls-1" d="M9.54,17.35l-.25.61-4.07-1.69.25-.61,4.07,1.69Z"/>
      <path class="cls-1" d="M7.51,13.06l-.57.98,1.13.66.49-.84.49.29-.49.84,1.68.98-.33.57-3.81-2.22.91-1.55.5.29Z"/>
      <path class="cls-1" d="M12.37,13.03l-1.17,1.41-3.39-2.81,1.16-1.39.45.37-.74.89.99.82.63-.76.44.37-.63.76,1.06.88.75-.9.45.37Z"/>
      <path class="cls-1" d="M11.87,8.35l-.55.47,2.49,2.9-.5.43-2.49-2.9-.55.47-.38-.44,1.6-1.37.38.44Z"/>
      <path class="cls-1" d="M15.4,10.57l-.55.36-2.42-3.68.55-.36,2.42,3.68Z"/>
      <path class="cls-1" d="M18.44,9.05l-.58.26-.9-1.98c-.05-.1-.1-.26-.16-.45l.41,2.28-.31.14-1.45-1.81c.11.18.19.32.23.42l.9,1.98-.58.26-1.82-4.02.57-.26,1.63,1.93s.05.08.1.17c-.02-.04-.04-.11-.07-.19l-.37-2.5.57-.26,1.82,4.02Z"/>
      <path class="cls-1" d="M20.88,8.45l-1.78.42-1.02-4.29,1.76-.42.13.57-1.12.27.3,1.25.96-.23.13.56-.96.23.32,1.34,1.14-.27.14.57Z"/>
      <path class="cls-1" d="M26.43,3.99l-.92,4.36-.64-.04-.24-2.52c0-.09,0-.22,0-.4,0,.09-.02.22-.05.4l-.54,2.47-.65-.04-.37-4.44.67.04.18,2.63c0,.09,0,.22,0,.4,0-.09.02-.22.05-.4l.54-2.58.54.03.22,2.63c0,.09,0,.22,0,.4,0-.09.02-.22.05-.4l.5-2.59.67.04Z"/>
      <path class="cls-1" d="M28.7,9.11l-.63-.17.09-.84-.8-.22-.35.77-.63-.17h0s1.99-4.03,1.99-4.03l.67.18-.35,4.48ZM28.23,7.53l.22-2-.84,1.83.62.17Z"/>
      <path class="cls-1" d="M31.14,10.25l-.62-.3.23-2.16.17-.36.58.28.6-1.26-.75-.36-1.66,3.47-.59-.28,1.9-3.98,1.58.75c.24.11.3.29.18.54l-.69,1.45c-.08.17-.19.25-.33.24-.07,0-.21-.05-.4-.15l-.21,2.11Z"/>
      <path class="cls-1" d="M33.36,11.81l-.56-.4.6-2.09.23-.32.53.38.82-1.13-.67-.49-2.24,3.12-.54-.38,2.57-3.58,1.42,1.02c.21.15.24.34.09.56l-.94,1.3c-.11.15-.23.21-.36.18-.07-.02-.2-.09-.37-.22l-.58,2.04Z"/>
      <path class="cls-1" d="M35.26,13.72l-.46-.47.51-.68-.58-.59-.69.49-.45-.47h0s3.75-2.47,3.75-2.47l.48.5-2.57,3.68ZM35.65,12.11l1.2-1.62-1.65,1.15.45.46Z"/>
      <path class="cls-1" d="M36.83,16l-.32-.48,1.73-2.41c-.1.1-.18.17-.24.21l-2.04,1.36-.36-.53,3.67-2.44.32.48-1.68,2.38c.1-.1.18-.17.24-.21l2-1.33.36.53-3.67,2.44Z"/>
      <path class="cls-1" d="M41.42,16.87l-.29-.67-3.51,1.52-.26-.6,3.51-1.52-.29-.67.53-.23.84,1.93-.53.23Z"/>
      <path class="cls-1" d="M42.86,20l-1.93-.13c-.19-.03-.51-.05-.96-.06l-1.57.38-.16-.64,1.57-.38c.14-.06.28-.14.42-.24.25-.16.38-.25.41-.26l1.65-1s0,0,.02,0l.16.66-1.74.97,1.98.05.16.66s-.02,0-.02,0Z"/>
      <path class="cls-1" d="M37.96,28.44l.46-1.67,4.25,1.16-.17.64-3.68-1.01-.28,1.03-.57-.16Z"/>
      <path class="cls-1" d="M37.42,29.74l.26-.61,4.06,1.72-.26.61-4.06-1.72Z"/>
      <path class="cls-1" d="M39.43,34.04l.58-.98-1.12-.66-.5.84-.49-.29.5-.84-1.68-.99.34-.57,3.79,2.24-.92,1.55-.5-.3Z"/>
      <path class="cls-1" d="M34.57,34.03l1.18-1.4,3.37,2.84-1.16,1.39-.45-.37.74-.88-.99-.83-.64.76-.44-.37.64-.76-1.06-.89-.75.89-.45-.37Z"/>
      <path class="cls-1" d="M35.03,38.73l.55-.47-2.47-2.92.5-.42,2.47,2.92.55-.47.38.44-1.61,1.36-.38-.44Z"/>
      <path class="cls-1" d="M31.52,36.48l.55-.36,2.4,3.7-.55.36-2.4-3.7Z"/>
      <path class="cls-1" d="M28.47,37.98l.58-.26.88,1.99c.05.1.1.26.16.45l-.39-2.29.31-.14,1.44,1.82c-.11-.18-.19-.32-.23-.42l-.88-1.99.58-.26,1.79,4.03-.57.25-1.62-1.94s-.05-.08-.1-.18c.02.04.04.11.07.19l.36,2.51-.57.25-1.79-4.03Z"/>
      <path class="cls-1" d="M26.03,38.57l1.78-.41.99,4.29-1.76.41-.13-.57,1.12-.26-.29-1.25-.97.22-.13-.56.97-.22-.31-1.35-1.14.26-.13-.57Z"/>
      <path class="cls-1" d="M20.45,42.99l.94-4.36.64.04.22,2.52c0,.09,0,.22,0,.4,0-.09.02-.22.05-.4l.56-2.47.65.04.34,4.45-.67-.05-.16-2.63c0-.09,0-.22,0-.4,0,.09-.03.22-.05.4l-.56,2.58-.54-.04-.2-2.63c0-.09,0-.23,0-.4,0,.09-.02.22-.05.4l-.52,2.58-.67-.04Z"/>
      <path class="cls-1" d="M18.2,37.85l.63.18-.1.84.79.22.35-.77.63.18h0s-2.02,4.01-2.02,4.01l-.67-.19.38-4.48ZM18.66,39.44l-.23,2,.85-1.83-.62-.18Z"/>
      <path class="cls-1" d="M15.78,36.7l.62.3-.24,2.16-.17.36-.58-.28-.61,1.26.75.36,1.68-3.45.59.29-1.92,3.96-1.57-.76c-.24-.12-.3-.29-.18-.54l.7-1.44c.08-.17.19-.25.33-.24.07,0,.21.05.4.15l.22-2.11Z"/>
      <path class="cls-1" d="M13.56,35.13l.56.41-.62,2.08-.23.32-.52-.38-.82,1.13.67.49,2.26-3.1.53.39-2.6,3.56-1.41-1.03c-.21-.16-.24-.34-.08-.56l.94-1.29c.11-.15.23-.21.36-.18.07.02.19.09.37.22l.59-2.04Z"/>
      <path class="cls-1" d="M11.68,33.21l.45.47-.51.67.57.59.69-.48.45.47h0s-3.76,2.44-3.76,2.44l-.48-.5,2.59-3.67ZM11.28,34.81l-1.21,1.61,1.66-1.14-.45-.46Z"/>
      <path class="cls-1" d="M10.13,30.92l.32.48-1.74,2.4c.1-.1.18-.17.24-.21l2.05-1.35.35.54-3.68,2.42-.32-.48,1.69-2.37c-.1.1-.18.17-.24.21l-2.01,1.32-.35-.54,3.68-2.42Z"/>
      <path class="cls-1" d="M5.54,30.01l.29.67,3.52-1.5.26.6-3.52,1.5.29.67-.54.23-.83-1.94.54-.23Z"/>
      <path class="cls-1" d="M4.12,26.88l1.93.14c.19.03.51.05.96.07l1.58-.37.15.64-1.58.37c-.14.06-.28.14-.42.23-.25.16-.38.25-.41.26l-1.66.99s0,0-.02,0l-.16-.66,1.74-.95-1.98-.07-.16-.66s.02,0,.02,0Z"/>
      <path class="cls-1" d="M26.1,14.5c.24.11.39.37.48.61.13.38.22.98.27,1.38.08.57.11,1.15.19,1.73.1.77.27,1.57.69,2.23.45.72,1.22,1.03,2.06,1.03.09,0,.14,0,.14,0v-2.35c0-1.96-1.13-3.69-2.91-4.49-.81-.37-1.83-.44-2.68-.14-.82.29-1.52.83-1.84,1.65-.33.83-.28,2.62-.28,2.62,0,0,0,1.77,0,2.74,0,.19,0,.38,0,.57,0,.24,0,.49-.09.71-.15.37-.59.47-.94.6.45.19.89.52.96,1.24.02.24.03,3.58.03,5.78,0,.96,0,1.55,0,1.83-.75-.07-1.42-.2-1.66-.46-.21-.25-.32-.54-.35-.83,0-.03,0-.07-.01-.1-.05-.59,0-2.38,0-2.38,0-.84.03-1.86.01-2.7,0-.38-.03-.75-.07-1.13-.06-.62-.4-1.04-.79-1.24.34-.19.64-.28.76-.6.09-.22.09-.47.09-.71,0-.19,0-.38,0-.57,0-.98,0-1.76,0-2.74,0-.88-.04-1.79.28-2.62.35-.89,1.06-1.39,1.93-1.69.22-.07.44-.12.66-.15,0,0,.02,0,.03,0,.02,0,.04,0,.06-.01-.84.11-1.61.13-2.42.48-.72.32-1.36.79-1.87,1.39-.51.59-.85,1.26-1.08,1.98-.2.63-.32,1.1-.4,1.76-.15,1.19-.24,2.83-1.03,3.5.78.46.77,2.07.84,2.85.09.96.16,2.16.5,3.06.03.1.07.2.11.3.28.72.71,1.36,1.26,1.85.27.24.57.45.89.62.3.15.66.21.99.27.16.03.32.05.48.08.1.01.19.03.29.04.82.11,1.6.32,2.02.78.29-.5,1.72-.8,1.72-.81.03,0,.06,0,.08,0,.12-.02.24-.03.36-.05.38-.07.79-.14,1.15-.3.58-.26,1.09-.62,1.51-1.05.88-.89,1.4-2.12,1.4-3.44v-2.36h-.14c-.84,0-1.6.3-2.06,1.02-.42.67-.6,1.46-.69,2.23-.07.58-.11,1.16-.19,1.73-.01.09-.02.18-.04.27-.06.44-.15.91-.41,1.25-.33.42-1.17.46-1.17.46,0,0-.01-.72-.02-1.93,0-1.75,0-4.35.06-5.68.03-.72.54-1.02.99-1.2-.34-.13-.78-.26-.93-.64-.06-.17-.08-.34-.08-.52,0-.11,0-.22,0-.33,0-.14,0-.29,0-.43.01-.97.02-2.35.02-2.35,0,0-.04-2.89-.04-3.94v-.09c.01-.65.64-.69.86-.59"/>
      <path class="cls-1" d="M23.5,36.96c-7.42,0-13.46-6.04-13.46-13.46s6.04-13.46,13.46-13.46,13.46,6.04,13.46,13.46-6.04,13.46-13.46,13.46ZM23.5,11.96c-6.36,0-11.54,5.18-11.54,11.54s5.18,11.54,11.54,11.54,11.54-5.18,11.54-11.54-5.18-11.54-11.54-11.54Z"/>
      <path class="cls-1" d="M23.5,47C10.54,47,0,36.46,0,23.5S10.54,0,23.5,0s23.5,10.54,23.5,23.5-10.54,23.5-23.5,23.5ZM23.5,2C11.65,2,2,11.65,2,23.5s9.65,21.5,21.5,21.5,21.5-9.65,21.5-21.5S35.35,2,23.5,2Z"/>
    </g>
  </g>
</svg>