<?xml version="1.0" encoding="UTF-8"?>
<svg id="Layer_2" data-name="Layer 2" xmlns="http://www.w3.org/2000/svg" viewBox="0 0 309.88 52">
  <defs>
    <style>
      .cls-1 {
        fill: #333;
        stroke-width: 0px;
      }
    </style>
  </defs>
  <g>
    <path class="cls-1" d="M26,0c14.34,0,26,11.66,26,26s-11.66,26-26,26S0,40.34,0,26,11.67,0,26,0M26,51.7c13.73,0,24.89-11.53,24.89-25.7S39.73.3,26,.3,1.11,11.83,1.11,26s11.17,25.7,24.89,25.7"/>
    <path class="cls-1" d="M30.28,9.28c.46.21.74.7.89,1.14.25.71.41,1.85.51,2.59.15,1.08.21,2.17.35,3.25.18,1.45.51,2.95,1.3,4.2.85,1.35,2.29,1.93,3.87,1.93.16,0,.26,0,.26,0v-4.42c0-3.69-2.12-6.94-5.46-8.43-1.52-.69-3.44-.83-5.04-.26-1.54.55-2.86,1.56-3.46,3.11-.61,1.57-.53,4.92-.53,4.92,0,0,0,3.32,0,5.15,0,.36,0,.72,0,1.08,0,.45,0,.92-.17,1.34-.28.7-1.12.89-1.77,1.12.84.35,1.67.97,1.81,2.32.05.45.05,6.73.05,10.86,0,1.79,0,2.92,0,3.44-1.42-.14-2.68-.37-3.12-.87-.4-.47-.59-1.01-.66-1.56-.01-.07-.02-.13-.02-.2-.1-1.11,0-4.47,0-4.47,0-1.57.06-3.5.02-5.07-.02-.71-.05-1.42-.13-2.13-.12-1.17-.76-1.96-1.48-2.32.65-.36,1.2-.53,1.43-1.12.17-.42.17-.89.17-1.34,0-.36,0-.72,0-1.08,0-1.83.01-3.32,0-5.15-.02-1.65-.08-3.36.53-4.92.66-1.67,1.98-2.62,3.64-3.17.41-.14.82-.23,1.24-.29.02,0,.03,0,.05,0,.04-.01.07-.02.11-.03-1.59.21-3.03.24-4.54.9-1.35.6-2.56,1.49-3.52,2.61-.96,1.11-1.59,2.37-2.02,3.72-.37,1.17-.6,2.06-.75,3.3-.28,2.24-.46,5.31-1.93,6.57,1.47.87,1.44,3.89,1.58,5.36.16,1.8.3,4.06.94,5.74.06.19.13.38.2.56.52,1.36,1.33,2.55,2.37,3.48.51.46,1.07.85,1.67,1.16.56.29,1.24.4,1.86.51.3.05.6.1.9.14.18.03.36.05.54.07,1.54.21,3.01.59,3.79,1.48.54-.95,3.24-1.51,3.24-1.52.05,0,.11-.01.16-.02.23-.03.45-.06.68-.1.72-.13,1.49-.26,2.16-.56,1.09-.49,2.05-1.16,2.84-1.98,1.66-1.68,2.62-3.98,2.62-6.46v-4.43h-.26c-1.58-.01-3.02.57-3.87,1.93-.79,1.25-1.12,2.75-1.3,4.19-.14,1.08-.2,2.18-.35,3.25-.02.17-.04.34-.07.51-.11.83-.28,1.7-.77,2.34-.61.79-2.21.86-2.21.86,0,0-.02-1.35-.03-3.63-.01-3.28,0-8.17.11-10.66.06-1.35,1.01-1.92,1.85-2.25-.65-.25-1.47-.49-1.75-1.2-.12-.31-.14-.65-.15-.99,0-.21.01-.42.01-.63.01-.27.02-.53.02-.81.02-1.83.03-4.41.03-4.41,0,0-.07-5.43-.07-7.4v-.17c.03-1.23,1.2-1.29,1.62-1.11"/>
    <path class="cls-1" d="M78.03,22.23c-.33-1.44-.94-2.46-1.83-3.07-.89-.61-2.05-.91-3.49-.91-1.02,0-1.89.2-2.62.61-.74.41-1.34.95-1.82,1.64-.48.69-.83,1.48-1.05,2.38-.23.9-.34,1.85-.34,2.85,0,.94.1,1.86.29,2.77.19.91.52,1.71.97,2.43.45.71,1.06,1.29,1.83,1.72.77.44,1.73.66,2.88.66.72,0,1.37-.12,1.97-.35.59-.23,1.11-.56,1.56-.97.45-.41.82-.9,1.13-1.47.3-.56.53-1.18.69-1.85h1.66c-.19.81-.46,1.58-.82,2.31-.36.73-.83,1.36-1.42,1.91-.59.55-1.3.98-2.13,1.3-.84.32-1.82.48-2.94.48-1.3,0-2.41-.24-3.33-.71-.92-.48-1.68-1.12-2.26-1.93-.59-.81-1.01-1.75-1.28-2.82-.27-1.07-.4-2.21-.4-3.41,0-1.61.2-2.98.6-4.1.4-1.12.95-2.04,1.65-2.75.7-.71,1.53-1.23,2.48-1.55.95-.32,1.99-.48,3.12-.48.86,0,1.66.11,2.4.34.74.23,1.4.57,1.97,1.02.57.45,1.04,1.01,1.41,1.68.37.66.62,1.43.76,2.31h-1.64Z"/>
    <path class="cls-1" d="M83.93,25.79c0-1.23.17-2.39.5-3.47.34-1.08.83-2.02,1.49-2.82.66-.8,1.47-1.44,2.44-1.91.97-.47,2.09-.7,3.35-.7s2.46.23,3.46.69c.99.46,1.82,1.09,2.48,1.9.66.8,1.16,1.75,1.5,2.84.34,1.09.5,2.25.5,3.48s-.17,2.36-.5,3.43c-.34,1.07-.83,2.01-1.49,2.81-.66.8-1.48,1.44-2.46,1.91-.98.47-2.13.7-3.42.7s-2.44-.23-3.42-.7c-.98-.47-1.8-1.11-2.46-1.91-.66-.8-1.15-1.74-1.48-2.81-.33-1.07-.49-2.22-.49-3.43ZM91.81,33.29c1.09,0,2.03-.21,2.82-.62.79-.41,1.44-.96,1.95-1.65.51-.69.88-1.48,1.12-2.39.24-.9.36-1.85.36-2.84,0-1.17-.15-2.22-.43-3.15-.29-.93-.71-1.72-1.25-2.38-.55-.66-1.21-1.16-1.99-1.5-.78-.34-1.66-.52-2.62-.52-1.08,0-2.01.21-2.8.63-.79.42-1.44.98-1.94,1.68-.51.69-.88,1.5-1.12,2.4-.24.91-.36,1.85-.36,2.84s.12,1.95.36,2.86c.24.91.62,1.7,1.12,2.39.51.69,1.16,1.23,1.94,1.64.79.41,1.74.61,2.85.61Z"/>
    <path class="cls-1" d="M103.43,34.2v-16.87h2.44l5.53,14.88h.05l5.44-14.88h2.41v16.87h-1.59v-15.05h-.05l-5.53,15.05h-1.5l-5.55-15.05h-.05v15.05h-1.59Z"/>
    <path class="cls-1" d="M124.57,34.2v-16.87h6.16c1.09,0,2,.13,2.71.38.71.25,1.27.59,1.69,1.03.41.44.7.94.87,1.51.16.57.25,1.17.25,1.79,0,.94-.19,1.71-.57,2.32-.38.61-.88,1.09-1.49,1.44-.61.35-1.3.6-2.07.74-.77.14-1.55.21-2.33.21h-3.61v7.45h-1.59ZM129.82,25.39c.75,0,1.42-.05,2.02-.14.59-.09,1.1-.27,1.51-.53.41-.26.73-.61.96-1.06.23-.45.34-1.03.34-1.74,0-1.06-.35-1.87-1.04-2.41-.7-.55-1.8-.82-3.32-.82h-4.12v6.7h3.66Z"/>
    <path class="cls-1" d="M137.15,34.2l6.63-16.87h1.8l6.47,16.87h-1.64l-1.94-5.3h-7.69l-1.99,5.3h-1.64ZM141.33,27.55h6.61l-3.3-8.86-3.31,8.86Z"/>
    <path class="cls-1" d="M157.54,19.48h-.05v14.72h-1.59v-16.87h1.8l9.75,14.74h.05v-14.74h1.59v16.87h-1.85l-9.7-14.72Z"/>
    <path class="cls-1" d="M179.67,25.46l5.09-8.13h1.85l-6.12,9.52v7.36h-1.59v-7.24l-6.02-9.63h1.83l4.97,8.13Z"/>
    <path class="cls-1" d="M198.39,34.2v-16.87h10.88v1.36h-9.28v6.09h8.44v1.36h-8.44v8.06h-1.6Z"/>
    <path class="cls-1" d="M212.55,25.79c0-1.23.17-2.39.5-3.47.34-1.08.83-2.02,1.49-2.82.66-.8,1.47-1.44,2.44-1.91.97-.47,2.09-.7,3.35-.7s2.47.23,3.46.69c.99.46,1.82,1.09,2.48,1.9.66.8,1.16,1.75,1.5,2.84.34,1.09.5,2.25.5,3.48s-.17,2.36-.5,3.43c-.34,1.07-.83,2.01-1.49,2.81-.66.8-1.48,1.44-2.46,1.91-.98.47-2.13.7-3.42.7s-2.44-.23-3.42-.7c-.98-.47-1.8-1.11-2.46-1.91-.66-.8-1.15-1.74-1.48-2.81-.33-1.07-.49-2.22-.49-3.43ZM220.42,33.29c1.09,0,2.04-.21,2.82-.62.79-.41,1.44-.96,1.94-1.65.51-.69.88-1.48,1.13-2.39.24-.9.36-1.85.36-2.84,0-1.17-.15-2.22-.43-3.15-.29-.93-.71-1.72-1.25-2.38-.55-.66-1.21-1.16-1.99-1.5-.78-.34-1.66-.52-2.63-.52-1.08,0-2.01.21-2.8.63-.79.42-1.44.98-1.95,1.68-.51.69-.88,1.5-1.12,2.4-.24.91-.36,1.85-.36,2.84s.12,1.95.36,2.86c.24.91.62,1.7,1.12,2.39.51.69,1.16,1.23,1.95,1.64.79.41,1.74.61,2.85.61Z"/>
    <path class="cls-1" d="M232.59,34.2v-16.87h1.59v15.52h9.05v1.36h-10.64Z"/>
    <path class="cls-1" d="M247.23,34.2v-16.87h5.77c.47,0,.93.01,1.38.04.45.02.9.08,1.34.16.44.09.86.22,1.28.39.41.17.82.4,1.21.68.56.41,1.02.9,1.38,1.49.36.59.64,1.2.86,1.85.21.65.36,1.3.45,1.97.09.66.13,1.28.13,1.84s-.04,1.13-.11,1.71c-.07.58-.18,1.14-.34,1.7-.16.55-.36,1.09-.62,1.59-.26.51-.58.97-.97,1.4-.39.44-.82.79-1.28,1.05-.46.27-.95.47-1.45.62-.51.15-1.03.25-1.58.3-.55.06-1.1.08-1.66.08h-5.77ZM248.83,32.84h3.82c.72,0,1.39-.04,2.03-.13.63-.09,1.28-.3,1.93-.64.56-.28,1.02-.66,1.38-1.15.36-.48.64-1.01.86-1.58.21-.57.36-1.17.45-1.79.09-.63.13-1.23.13-1.8,0-.61-.04-1.23-.12-1.86-.08-.63-.23-1.23-.45-1.8-.22-.57-.51-1.09-.89-1.57-.38-.48-.86-.87-1.45-1.18-.5-.27-1.09-.44-1.78-.52-.69-.08-1.38-.12-2.08-.12h-3.82v14.15Z"/>
    <path class="cls-1" d="M265.3,34.2v-16.87h11.23v1.36h-9.63v6.09h8.7v1.36h-8.7v6.7h9.87v1.36h-11.46Z"/>
    <path class="cls-1" d="M282.81,26.54v7.66l-1.59-.02v-16.85h6.61c1.86,0,3.28.35,4.27,1.04.98.7,1.48,1.82,1.48,3.39,0,1.06-.22,1.91-.64,2.53-.43.62-1.13,1.16-2.1,1.59.5.17.89.42,1.17.75.28.33.49.7.63,1.12.14.42.23.87.27,1.34.04.47.07.92.08,1.36.02.64.04,1.17.08,1.59.04.42.09.76.14,1.03.05.27.12.47.2.62.08.15.17.26.28.34v.14l-1.76.02c-.17-.28-.29-.67-.36-1.17-.07-.5-.12-1.02-.16-1.57-.04-.55-.07-1.08-.09-1.59-.02-.52-.07-.94-.13-1.27-.09-.45-.25-.82-.46-1.09-.21-.27-.46-.48-.76-.62-.3-.14-.63-.23-1-.28-.37-.05-.74-.07-1.14-.07h-5.02ZM287.78,25.18c.59,0,1.14-.06,1.65-.19.51-.13.95-.32,1.32-.6.38-.27.67-.62.89-1.04.22-.42.33-.93.33-1.52,0-.63-.11-1.14-.34-1.55-.23-.41-.53-.73-.92-.96-.38-.23-.82-.4-1.31-.49-.49-.09-1-.14-1.53-.14h-5.06v6.49h4.97Z"/>
    <path class="cls-1" d="M299.14,29.16c.06.75.23,1.39.5,1.91.27.52.62.95,1.05,1.28.43.33.93.57,1.49.71.56.15,1.16.22,1.81.22.75,0,1.4-.09,1.94-.28.55-.19.99-.44,1.34-.76.34-.32.6-.69.76-1.11.16-.42.25-.87.25-1.34,0-.66-.15-1.19-.45-1.59-.3-.41-.68-.74-1.16-1-.48-.26-1.02-.46-1.64-.62-.62-.16-1.25-.31-1.9-.46-.65-.15-1.28-.33-1.9-.53-.62-.2-1.16-.48-1.64-.82-.48-.34-.86-.79-1.16-1.32-.3-.54-.44-1.22-.44-2.05,0-.58.12-1.14.36-1.69.24-.55.6-1.03,1.08-1.45.48-.42,1.07-.76,1.79-1.01.72-.25,1.55-.38,2.48-.38s1.78.13,2.5.4c.71.26,1.3.63,1.77,1.09.47.46.82,1,1.05,1.61.23.61.35,1.26.35,1.95h-1.52c0-.64-.11-1.2-.34-1.66-.23-.47-.54-.85-.93-1.15-.39-.3-.84-.52-1.34-.66-.5-.14-1.02-.21-1.55-.21-.81,0-1.5.11-2.05.34-.55.23-1,.52-1.32.88-.33.36-.56.76-.68,1.2-.12.44-.15.87-.07,1.31.09.55.31.98.66,1.31.34.33.77.6,1.27.81s1.05.38,1.65.52,1.21.27,1.84.42c.62.15,1.23.33,1.82.53.59.2,1.11.48,1.56.82.45.34.82.78,1.09,1.32.27.54.41,1.22.41,2.03,0,1.56-.54,2.77-1.62,3.63-1.08.86-2.59,1.29-4.55,1.29-.88,0-1.69-.11-2.44-.34-.75-.23-1.4-.57-1.94-1.03-.55-.46-.97-1.03-1.28-1.71-.3-.68-.46-1.48-.46-2.4h1.55Z"/>
  </g>
</svg>